<?xml version="1.0" encoding="iso-8859-1"?>
<!-- Generator: Adobe Illustrator 17.1.0, SVG Export Plug-In . SVG Version: 6.00 Build 0)  -->
<!DOCTYPE svg PUBLIC "-//W3C//DTD SVG 1.1//EN" "http://www.w3.org/Graphics/SVG/1.1/DTD/svg11.dtd">
<svg width="50" height="50" version="1.1" id="Capa_1" xmlns="http://www.w3.org/2000/svg" xmlns:xlink="http://www.w3.org/1999/xlink" x="0px" y="0px"
	 viewBox="0 0 294 294" style="enable-background:new 0 0 294 294;" xml:space="preserve">
<path d="M294,147c0,18.917-3.594,37.009-10.131,53.633l-104.68-53.15L282.89,90.96C290.043,108.24,294,127.165,294,147z
	 M11.093,91.001C3.951,108.27,0,127.181,0,147c0,18.917,3.594,37.009,10.131,53.633l104.605-53.112L11.093,91.001z M147,115.094
	l53.31-105.086C183.774,3.551,165.794,0,147,0c-18.795,0-36.774,3.551-53.31,10.008L147,115.094z M147,179.388L90.693,282.78
	C108.044,290.003,127.063,294,147,294c19.937,0,38.956-3.997,56.308-11.22L147,179.388z M147,130.5c-9.113,0-16.5,7.387-16.5,16.5
	s7.387,16.5,16.5,16.5s16.5-7.387,16.5-16.5S156.113,130.5,147,130.5z"/>
<g>
</g>
<g>
</g>
<g>
</g>
<g>
</g>
<g>
</g>
<g>
</g>
<g>
</g>
<g>
</g>
<g>
</g>
<g>
</g>
<g>
</g>
<g>
</g>
<g>
</g>
<g>
</g>
<g>
</g>
</svg>
