<?xml version="1.0" ?><svg height="60px" version="1.1" viewBox="0 0 60 60" width="60px" xmlns="http://www.w3.org/2000/svg" xmlns:xlink="http://www.w3.org/1999/xlink"><title/><desc/><defs/><g fill="none" fill-rule="evenodd" id="Page-1" stroke="none" stroke-width="1"><g id="014---Volume" transform="translate(1.000000, 1.000000)"><g fill-rule="nonzero" id="Icons"><path d="M58,29.005 C57.9846946,36.6805529 54.920601,44.0355874 49.4819139,49.4517695 C44.0432269,54.8679516 36.6755503,57.9015214 29,57.885 C28.33,57.885 27.66,57.865 27,57.805 C11.8148168,56.8242902 9.32587341e-15,44.221819 7.54951657e-15,29.005 C5.77315973e-15,13.788181 11.8148168,1.18570975 27,0.205 C27.66,0.145 28.33,0.125 29,0.125 C36.6755511,0.108475955 44.0432292,3.14204484 49.4819168,8.55822756 C54.9206045,13.9744103 57.9846973,21.3294463 58,29.005 Z" fill="#424242" id="Shape"/><ellipse cx="27" cy="29.005" fill="#9E9E9E" id="Oval" rx="27" ry="28.79999"/><path d="M55,29.005 C54.9517585,43.3249643 43.3200343,54.9030037 29,54.885 C28.16,54.885 27.33,54.845 26.5,54.765 C13.1870891,53.5408138 3.00007599,42.3740773 3.00007599,29.005 C3.00007599,15.6359227 13.1870891,4.46918623 26.5,3.245 C27.33,3.165 28.16,3.125 29,3.125 C43.3200433,3.10697426 54.9517805,14.6850265 55,29.005 Z" fill="#00695C" id="Shape"/><ellipse cx="26.5" cy="29.005" fill="#009688" id="Oval" rx="23.5" ry="25.76001"/><path d="M16,25 L20,25 L20,33 L16,33 C14.8954305,33 14,32.1045695 14,31 L14,27 C14,25.8954305 14.8954305,25 16,25 Z" fill="#607D8B" id="Shape"/><path d="M33,19.06 L33,38.94 C33.003295,39.6555954 32.6217085,40.3177352 32.0009011,40.6736647 C31.3800937,41.0295943 30.6158882,41.0243753 30,40.66 C29.9222913,40.6205936 29.8486095,40.5737051 29.78,40.52 L20,33 L20,25 L29.78,17.48 C30.3823076,17.0119646 31.1987309,16.9282197 31.8835139,17.2642312 C32.5682969,17.6002427 33.0016315,18.2972229 33,19.06 Z" fill="#9E9E9E" id="Shape"/><path d="M30,25.03 L30,40.66 C29.9222913,40.6205936 29.8486095,40.5737051 29.78,40.52 L20,33 L20,28.66 L26.78,23.45 C27.3828279,22.984165 28.1980903,22.9016511 28.8820326,23.2372501 C29.5659748,23.5728491 29.9995727,24.2681578 30,25.03 Z" fill="#F5F5F5" id="Shape"/></g><g id="Outline" stroke="#000000" stroke-linecap="round" stroke-linejoin="round" stroke-width="2"><ellipse cx="29" cy="29" id="Oval" rx="29" ry="28.875"/><ellipse cx="29" cy="29" id="Oval" rx="25" ry="24.875"/><path d="M16,25 L20,25 L20,33 L16,33 C14.8954305,33 14,32.1045695 14,31 L14,27 C14,25.8954305 14.8954305,25 16,25 Z" id="Shape"/><path d="M20,29 L20,25 L29.78058,17.47648 C30.3845113,17.0119184 31.1999413,16.9308669 31.8835048,17.2674551 C32.5670682,17.6040434 33.0000003,18.2997913 33,19.06173 L33,29" id="Shape"/><path d="M33,29 L33,38.93827 C33.0000003,39.7002087 32.5670682,40.3959566 31.8835048,40.7325449 C31.1999413,41.0691331 30.3845113,40.9880816 29.78058,40.52352 L20,33 L20,29" id="Shape"/><path d="M37,22 C41.418278,22 45,25.581722 45,30 C45,34.418278 41.418278,38 37,38" id="Shape"/><path d="M37,26 C39.209139,26 41,27.790861 41,30 C41,32.209139 39.209139,34 37,34" id="Shape"/></g></g></g></svg>