<?xml version="1.0" ?><svg height="60px" version="1.1" viewBox="0 0 60 60" width="60px" xmlns="http://www.w3.org/2000/svg" xmlns:xlink="http://www.w3.org/1999/xlink"><title/><desc/><defs/><g fill="none" fill-rule="evenodd" id="Page-1" stroke="none" stroke-width="1"><g id="016---Volume" transform="translate(1.000000, 1.000000)"><g fill-rule="nonzero" id="Icons"><path d="M58,29.005 C57.9846946,36.6805529 54.920601,44.0355874 49.4819139,49.4517695 C44.0432269,54.8679516 36.6755503,57.9015214 29,57.885 C28.33,57.885 27.66,57.865 27,57.805 C11.8148168,56.8242902 9.32587341e-15,44.221819 7.54951657e-15,29.005 C5.77315973e-15,13.788181 11.8148168,1.18570975 27,0.205 C27.66,0.145 28.33,0.125 29,0.125 C36.6755511,0.108475955 44.0432292,3.14204484 49.4819168,8.55822756 C54.9206045,13.9744103 57.9846973,21.3294463 58,29.005 Z" fill="#424242" id="Shape"/><ellipse cx="27" cy="29.005" fill="#9E9E9E" id="Oval" rx="27" ry="28.79999"/><path d="M55,29.005 C54.9517585,43.3249643 43.3200343,54.9030037 29,54.885 C28.16,54.885 27.33,54.845 26.5,54.765 C13.1870891,53.5408138 3.00007599,42.3740773 3.00007599,29.005 C3.00007599,15.6359227 13.1870891,4.46918623 26.5,3.245 C27.33,3.165 28.16,3.125 29,3.125 C43.3200433,3.10697426 54.9517805,14.6850265 55,29.005 Z" fill="#00695C" id="Shape"/><ellipse cx="26.5" cy="29.005" fill="#009688" id="Oval" rx="23.5" ry="25.76001"/><path d="M19,25 L23,25 L23,33 L19,33 C17.8954305,33 17,32.1045695 17,31 L17,27 C17,25.8954305 17.8954305,25 19,25 Z" fill="#607D8B" id="Shape"/><path d="M36,19.06 L36,38.94 C36.003295,39.6555954 35.6217085,40.3177352 35.0009011,40.6736647 C34.3800937,41.0295943 33.6158882,41.0243753 33,40.66 C32.9222913,40.6205936 32.8486095,40.5737051 32.78,40.52 L23,33 L23,25 L32.78,17.48 C33.3823076,17.0119646 34.1987309,16.9282197 34.8835139,17.2642312 C35.5682969,17.6002427 36.0016315,18.2972229 36,19.06 Z" fill="#9E9E9E" id="Shape"/><path d="M33,25.03 L33,40.66 C32.9222913,40.6205936 32.8486095,40.5737051 32.78,40.52 L23,33 L23,28.66 L29.78,23.45 C30.3828279,22.984165 31.1980903,22.9016511 31.8820326,23.2372501 C32.5659748,23.5728491 32.9995727,24.2681578 33,25.03 Z" fill="#F5F5F5" id="Shape"/></g><g id="Outline" stroke="#000000" stroke-linecap="round" stroke-linejoin="round" stroke-width="2"><ellipse cx="29" cy="29" id="Oval" rx="29" ry="28.875"/><ellipse cx="29" cy="29" id="Oval" rx="25" ry="24.875"/><path d="M19,25 L23,25 L23,33 L19,33 C17.8954305,33 17,32.1045695 17,31 L17,27 C17,25.8954305 17.8954305,25 19,25 Z" id="Shape"/><path d="M23,29 L23,25 L32.78058,17.47648 C33.3845113,17.0119184 34.1999413,16.9308669 34.8835048,17.2674551 C35.5670682,17.6040434 36.0000003,18.2997913 36,19.06173 L36,29" id="Shape"/><path d="M36,29 L36,38.93827 C36.0000003,39.7002087 35.5670682,40.3959566 34.8835048,40.7325449 C34.1999413,41.0691331 33.3845113,40.9880816 32.78058,40.52352 L23,33 L23,29" id="Shape"/></g></g></g></svg>